<?xml version="1.0" encoding="UTF-8"?><svg enable-background="new 0 0 111.1 168.9" version="1.1" viewBox="0 0 111.1 168.9" xml:space="preserve" xmlns="http://www.w3.org/2000/svg"><style type="text/css">.p{fill:#ff9b00;}</style><path class="p" d="m95.1 155s-0.3 0.1-0.9 0.2c1.8-1.6 3.4-3.3 4.6-5.1 30.3-42.8-1.1-68.2-33.6-82.3-14.7-6.4-34-18.1-28.5-32 2 1.8 3.6 3.9 4.8 6.3 0.5-0.9 2.4-3.1 4.7-5.1l3.7-0.4 1.2 1.8-1.8 0.4s-0.6-1.1 0-1.6c0 0-1.1 0.3-2 1.9l3.7 1 2.2-2-2.9-2.5 1.1-1s1.6-0.1 2.6 0.8l-0.9 0.6-1.3-0.7s0.2 1.4 1.6 2.2c0 0 1.7-1.3 1.7-2.5 0 0-1-1.4-2.2-2l0.6-0.9 1.8 0.5 0.2 1.4 1.8-1.7s-0.7-1.6-2.4-1.9-3.6 0.3-3.6 0.3 0.1 0.5-0.7 1.9c-0.3 0.6-0.9 1.2-1.4 1.7-1.3 0.3-3.2 0.8-5.4 1.9-1.4-2.1-2.9-3.6-4.4-4.7 5-6.1 15.2-10.3 31.8-4.8h0.3c0.1 0.1 0.2 0.1 0.2 0.2l14.7 8.1 3.7-3.6-2.5 0.3-11-5.2c-0.2-2.4 1.8-3.8 1.8-3.8l0.2 4.1 2.2-2.1v2.6l1.7-1.4c4 1.4 10.4 4.7 10.4 4.7l3-3.5 0.2-2-2 0.2-4.8-4.2 0.4-4.1s-4.3-2.7-7.2-3.9c-0.5-3.8-1.7-9.3-4-11.7-1.2-0.1-2.5 0.5-2.8 1.6 3 2.9 4.2 6.8 3.8 9.7-0.5 0.1-1 0.1-1.5 0.2-0.7-0.7-1.5-1.6-2.1-2.9-1.1-2.2-2.7-7.6-2.5-9.9 0 0-2.7-1-3.7 1.5 0 0 1.7 4.7 2.8 6.5 0 0-4.9-0.1-5.9 0.8 0 0-0.6 1.3 0.3 2.4 0 0 3.5-1.3 6.9-0.6 0 0 0.7 1.5 1.6 2.9-2.5 0.9-4.5 2.2-5.4 2.9-11.6-2.8-22.4-1.4-30.8 3.2-1.6-3.6-0.4-6.9 4.3-8.5 0.3-0.1 0.5-0.4 0.3-0.6-4-4.8-23.9 8.6-42.9 26.7-0.3 0.3-0.2 1 0.2 0.8 12.6-6.9 18.4-8.4 11.4 9.4-0.1 0.3 0.3 0.8 0.5 0.5 3.3-5.6 8.9-13.7 15.2-18.1-6.6 10.7-7.3 28.2 5.3 42.8 16.5 19.1 43.2 34.3 20.5 58.1-9 9.5-25.9 8.7-35.2-5.6-5.4-8.3-7.5-33.8 9.1-26.6 8.4 3.8 11.8-1.5 10.7-5.7-1.2-4.7-4.3-5-4-2.3 0.2 1.8 0.5 3.6-0.7 4.4-2.2 1.4-4.5-0.3-9.6-2.3-9-3.4-24.3 6.3-24.3 26.9 0 14.7 6.5 37 38.3 45.1 13.4 3.4 25.7 3.1 36 0.5-0.2 0.6-0.3 1.1-0.3 1.4-0.2 3.3 7.1 3.2 13.9-1 6.1-3.8 14.5-2.3 14.5-2.3-0.4-3.3-5.8-3.2-5.8-3.2 2.9-1.4 8.7-1.3 8.7-1.3-3-4.8-10.2-3.8-10.2-3.8zm-10.7-134.8c-0.4 1.4-1.8 2.2-3.2 1.8s-2.2-1.8-1.8-3.2 1.8-2.2 3.2-1.8 2.2 1.8 1.8 3.2z"/></svg>
