<?xml version="1.0" encoding="UTF-8"?><svg enable-background="new 0 0 56 54" version="1.1" viewBox="0 0 56 54" xml:space="preserve" xmlns="http://www.w3.org/2000/svg"><style type="text/css">.p{fill:#FF9B00;}</style><path class="p" d="m44.7 39c-1 0-1.7 0.8-1.7 1.8s0.8 1.7 1.8 1.7 1.7-0.8 1.7-1.8c-0.1-0.9-0.8-1.7-1.8-1.7zm-3.9 4c-1 0-1.7 0.7-1.8 1.7 0 1 0.7 1.7 1.7 1.8 1 0 1.7-0.7 1.8-1.7 0-1.1-0.7-1.8-1.7-1.8zm8-11.8c-1 0-1.7 0.7-1.8 1.6 0 1 0.7 1.8 1.7 1.8s1.7-0.7 1.7-1.7c0.1-1-0.6-1.7-1.6-1.7zm-15.9 15.9c-1 0-1.7 0.7-1.8 1.6 0 1 0.7 1.8 1.7 1.8s1.7-0.7 1.7-1.7c0.1-0.9-0.6-1.7-1.6-1.7zm-24-28.6c0.9 0 1.7-0.8 1.7-1.7s-0.8-1.7-1.7-1.7-1.7 0.7-1.7 1.7c0 0.9 0.8 1.7 1.7 1.7zm7.8-7.9c0.9 0.1 1.7-0.7 1.8-1.6 0-0.9-0.7-1.7-1.6-1.8s-1.8 0.6-1.8 1.6c-0.1 0.9 0.7 1.7 1.6 1.8zm32.1 12c0.9 0 1.7-0.8 1.6-1.7 0-0.9-0.8-1.7-1.7-1.6-0.9 0-1.7 0.8-1.6 1.7 0.1 0.8 0.8 1.6 1.7 1.6zm-27.9 24.5c-0.9 0-1.7 0.8-1.7 1.6 0 0.9 0.8 1.7 1.6 1.7 0.9 0 1.7-0.8 1.7-1.6 0.1-0.9-0.7-1.7-1.6-1.7zm-8-4c-0.9 0-1.6 0.7-1.6 1.6s0.7 1.6 1.6 1.6 1.6-0.7 1.6-1.6c-0.1-0.9-0.8-1.6-1.6-1.6zm31.8-28.7c0.9 0 1.6-0.7 1.6-1.6s-0.7-1.6-1.6-1.6-1.5 0.7-1.6 1.6c0 0.9 0.7 1.6 1.6 1.6zm4.1 20.9c-0.8 0-1.5 0.7-1.5 1.5 0 0.9 0.7 1.6 1.5 1.6 0.9 0 1.6-0.7 1.6-1.5 0-0.9-0.7-1.6-1.6-1.6zm-43.8-8.1c-0.9 0-1.6 0.7-1.6 1.6s0.7 1.6 1.6 1.6 1.6-0.7 1.6-1.6c-0.1-0.9-0.8-1.6-1.6-1.6zm23.8-20.7c0.9 0 1.6-0.7 1.6-1.6s-0.7-1.6-1.6-1.6-1.6 0.7-1.6 1.6 0.7 1.6 1.6 1.6zm8 40.7c-0.9 0-1.6 0.7-1.5 1.6 0 0.8 0.7 1.5 1.5 1.5 0.9 0 1.6-0.7 1.6-1.6 0-0.8-0.7-1.5-1.6-1.5zm4-36.7c0.8 0 1.5-0.7 1.5-1.5 0-0.9-0.7-1.6-1.5-1.6-0.9 0-1.6 0.7-1.6 1.6 0 0.8 0.7 1.5 1.6 1.5zm-31.9 28.7c-0.9 0-1.6 0.7-1.6 1.5 0 0.9 0.7 1.6 1.5 1.6 0.9 0 1.6-0.7 1.6-1.6 0-0.8-0.6-1.5-1.5-1.5zm15.9-32.7c0.8 0 1.5-0.7 1.5-1.5 0-0.9-0.7-1.6-1.5-1.6s-1.5 0.7-1.5 1.5c0 0.9 0.7 1.6 1.5 1.6zm-19.8 19.9c0.8 0 1.5-0.7 1.5-1.5 0-0.9-0.7-1.6-1.6-1.6-0.8 0-1.5 0.7-1.5 1.5 0 0.9 0.7 1.6 1.6 1.6zm27.8-20c0.8 0.1 1.6-0.6 1.6-1.4s-0.6-1.5-1.4-1.5c-0.8-0.1-1.6 0.6-1.6 1.4-0.1 0.8 0.6 1.5 1.4 1.5zm-27.8 25c-0.8 0-1.5 0.7-1.5 1.5s0.7 1.5 1.5 1.5 1.5-0.7 1.5-1.5c-0.1-0.8-0.7-1.5-1.5-1.5zm11.8 16c-0.8 0-1.4 0.6-1.5 1.4 0 0.8 0.6 1.5 1.4 1.5s1.4-0.6 1.4-1.4c0.1-0.9-0.5-1.5-1.3-1.5zm-11.9-25.1c0.8 0 1.4-0.6 1.5-1.4 0-0.8-0.6-1.4-1.4-1.5-0.8 0-1.4 0.6-1.5 1.4 0 0.8 0.6 1.5 1.4 1.5zm43.9-4.1c0.8 0 1.4-0.6 1.4-1.4s-0.6-1.4-1.4-1.4-1.5 0.6-1.4 1.5c0 0.7 0.6 1.3 1.4 1.3zm-28-11.8c0.8 0 1.4-0.6 1.5-1.4 0-0.8-0.6-1.4-1.4-1.5-0.8 0-1.4 0.6-1.5 1.4 0 0.8 0.6 1.4 1.4 1.5zm23.9 36.9c-0.8 0-1.4 0.6-1.4 1.4s0.6 1.4 1.4 1.4 1.4-0.6 1.4-1.4c0-0.7-0.6-1.4-1.4-1.4zm-31.8-33c0.7 0 1.4-0.6 1.4-1.4 0-0.7-0.6-1.4-1.4-1.4s-1.4 0.7-1.4 1.4c0 0.8 0.6 1.4 1.4 1.4zm-4 3.9c0.7 0 1.4-0.7 1.4-1.4s-0.7-1.4-1.4-1.4-1.4 0.6-1.4 1.4 0.7 1.5 1.4 1.4zm-4 21.3c-0.8 0-1.3 0.6-1.3 1.3s0.6 1.3 1.3 1.3 1.3-0.6 1.3-1.3c0.1-0.7-0.5-1.3-1.3-1.3zm31.8-29.2c0.8 0 1.4-0.5 1.4-1.3 0-0.7-0.5-1.3-1.2-1.3-0.8 0-1.4 0.5-1.4 1.3 0 0.7 0.5 1.2 1.2 1.3zm12.1 33.2c-0.7 0-1.3 0.5-1.3 1.2s0.5 1.3 1.2 1.3 1.3-0.5 1.3-1.2c0.1-0.7-0.4-1.3-1.2-1.3zm-8 8c-0.7 0-1.3 0.5-1.3 1.3 0 0.7 0.5 1.3 1.3 1.3 0.7 0 1.3-0.5 1.3-1.3-0.1-0.7-0.6-1.3-1.3-1.3zm-12 4c-0.7 0-1.3 0.6-1.2 1.3 0 0.7 0.6 1.3 1.3 1.2 0.7 0 1.3-0.6 1.2-1.3-0.1-0.6-0.7-1.2-1.3-1.2zm23.9-21.5c0.7 0 1.3-0.6 1.3-1.2 0-0.7-0.6-1.3-1.2-1.3-0.7 0-1.3 0.6-1.3 1.2 0 0.7 0.5 1.3 1.2 1.3zm0-3.9c0.6 0 1.2-0.6 1.2-1.2 0-0.7-0.6-1.3-1.2-1.3s-1.2 0.6-1.2 1.2c0 0.7 0.6 1.3 1.2 1.3zm-27.9 25.4c-0.6 0-1.2 0.6-1.2 1.2 0 0.7 0.6 1.3 1.3 1.2 0.6 0 1.2-0.6 1.2-1.2-0.1-0.6-0.6-1.2-1.3-1.2zm-19.9-33.5c0.6 0 1.2-0.5 1.2-1.1 0-0.7-0.5-1.2-1.2-1.2-0.6 0-1.2 0.5-1.2 1.1s0.6 1.2 1.2 1.2zm4 25.5c-0.7 0-1.2 0.5-1.2 1.2s0.5 1.2 1.1 1.2c0.7 0 1.2-0.5 1.2-1.2 0.1-0.7-0.4-1.2-1.1-1.2zm7.9-37.4c0.6 0 1.2-0.5 1.2-1.1 0-0.7-0.5-1.2-1.2-1.2-0.6 0-1.2 0.5-1.2 1.1 0 0.7 0.5 1.2 1.2 1.2zm27.9 4c0.7 0 1.2-0.5 1.2-1.2s-0.5-1.2-1.2-1.2-1.1 0.5-1.1 1.2 0.5 1.2 1.1 1.2zm4.1 3.9c0.6 0 1.1-0.6 1.1-1.2s-0.6-1.1-1.2-1.1-1.1 0.6-1.1 1.2c0.1 0.6 0.6 1.1 1.2 1.1zm-16 37.6c-0.6 0-1.1 0.5-1.1 1.1 0 0.7 0.5 1.2 1.2 1.1 0.7 0 1.1-0.5 1.1-1.2 0-0.5-0.5-1-1.2-1zm19.9-19.9c-0.7 0-1.2 0.5-1.1 1.2 0 0.6 0.5 1.1 1.1 1.1 0.7 0 1.2-0.5 1.2-1.1 0-0.7-0.5-1.2-1.2-1.2zm-39.8 16c-0.6 0-1.1 0.5-1.2 1.1 0 0.6 0.5 1.1 1.1 1.2 0.6 0 1.1-0.5 1.1-1.1 0.1-0.7-0.4-1.2-1-1.2zm8 4c-0.6 0-1.1 0.5-1.1 1.1s0.5 1.1 1.1 1.1 1.1-0.5 1.1-1.1-0.5-1.1-1.1-1.1zm31.8-29.7c0.6 0 1.2-0.5 1.2-1.1s-0.5-1.1-1.1-1.1-1.1 0.5-1.1 1c-0.1 0.6 0.4 1.1 1 1.2zm-47.7 17.8c-0.6 0-1.1 0.4-1.1 0.9 0 0.6 0.4 1 1 1.1 0.6 0 1-0.4 1-1 0.1-0.6-0.3-1-0.9-1zm35.7-33.8c0.6 0 1-0.4 1-1s-0.4-1-1-1-1 0.4-1 1c0 0.5 0.4 0.9 1 1zm-31.9 3.8c0.5 0 1-0.4 1-0.9s-0.4-1-0.9-1-1 0.4-1 0.9 0.4 1 0.9 1zm28 42c-0.5 0-0.9 0.5-0.9 1s0.5 1 1 1 0.9-0.5 0.9-1c0-0.6-0.5-1-1-1zm15.9-16c-0.5 0-0.9 0.5-0.9 1s0.5 1 1 1 0.9-0.5 0.9-1-0.5-1-1-1zm-27.9-34.1c0.5 0 0.9-0.4 0.9-0.9s-0.4-0.8-0.9-0.8c-0.5 0.1-0.8 0.3-0.8 0.9 0 0.5 0.3 0.8 0.8 0.8zm24 42.2c-0.5 0-0.8 0.3-0.8 0.9 0 0.5 0.4 0.9 1 0.9 0.4-0.1 0.7-0.3 0.7-0.9s-0.4-1-0.9-0.9zm-48-18.2c0.5 0 0.9-0.4 0.9-0.9s-0.3-0.8-0.9-0.8c-0.5 0-0.8 0.3-0.8 0.8s0.3 0.8 0.8 0.9zm28-24c0.5 0 0.9-0.3 0.9-0.9 0-0.5-0.3-0.8-0.8-0.9-0.6 0-0.9 0.3-0.9 0.8-0.1 0.7 0.2 1 0.8 1zm16 46.2c-0.5-0.1-0.9 0.3-1 0.9 0 0.4 0.2 0.8 0.8 0.8 0.5 0.1 0.9-0.3 0.9-0.8 0.1-0.5-0.2-0.8-0.7-0.9zm-43.9-20c-0.5 0-0.8 0.3-0.9 0.8 0 0.6 0.3 0.9 0.8 0.9 0.6 0 0.9-0.3 0.9-0.9 0-0.4-0.3-0.8-0.8-0.8zm32-26.3c0.3-0.1 0.6-0.4 0.9-0.6v-0.3c-0.3-0.2-0.6-0.6-0.9-0.6-0.5-0.1-0.8 0.3-0.8 0.8s0.3 0.8 0.8 0.7zm-15.9 50.2h-0.3c-0.2 0.3-0.6 0.6-0.6 0.9-0.1 0.5 0.3 0.8 0.8 0.8 0.4 0 0.9-0.4 0.8-0.8-0.2-0.3-0.5-0.6-0.7-0.9zm-4.2-46c0.5 0 0.8-0.3 0.9-1-0.2-0.2-0.5-0.5-0.8-0.6-0.5-0.1-0.9 0.2-0.9 0.8 0 0.4 0.3 0.8 0.8 0.8zm-12 26.3c-0.5 0-0.8 0.3-0.8 0.8 0.1 0.3 0.4 0.6 0.6 0.9h0.3c0.2-0.3 0.6-0.6 0.6-0.9 0.2-0.5-0.2-0.8-0.7-0.8zm4.1-18.4c0.5 0 0.8-0.3 0.9-1-0.2-0.2-0.5-0.6-0.8-0.7-0.5-0.1-0.9 0.3-0.9 0.8s0.3 0.8 0.8 0.9zm47.7 4h0.3c0.2-0.3 0.6-0.6 0.6-0.9 0.1-0.5-0.3-0.8-0.7-0.8-0.4-0.1-1 0.4-0.8 0.8 0 0.3 0.4 0.6 0.6 0.9zm-31.7-16.1c0.3-0.1 0.5-0.4 0.8-0.6v-0.3c-0.3-0.2-0.6-0.5-0.8-0.5-0.3 0-0.6 0.4-0.7 0.7-0.1 0.4 0.3 0.7 0.7 0.7zm-20 20c0.2 0 0.5-0.3 0.8-0.5v-0.3c-0.3-0.2-0.5-0.5-0.8-0.5-0.5-0.1-0.8 0.2-0.7 0.7 0 0.2 0.4 0.5 0.7 0.6zm39.2 31.1c0 0.2 0.3 0.6 0.6 0.6s0.5-0.3 1-0.6c-0.4-0.3-0.7-0.7-0.9-0.7-0.2 0.2-0.6 0.5-0.7 0.7zm12-11.9c0 0.2 0.4 0.4 0.7 0.6 0.2-0.2 0.5-0.5 0.6-0.7 0-0.2-0.3-0.4-0.7-0.8-0.3 0.4-0.6 0.7-0.6 0.9zm-43.8 8c0 0.2 0.3 0.5 0.6 0.5 0.2 0 0.5-0.3 0.9-0.6-0.4-0.3-0.7-0.6-0.9-0.6-0.2 0.2-0.5 0.5-0.6 0.7zm40.5-39.3c0.2 0 0.5-0.3 0.9-0.6-0.5-0.3-0.7-0.6-0.9-0.5-0.2 0-0.6 0.4-0.5 0.5 0 0.2 0.3 0.5 0.5 0.6zm-11.4-8.6c-0.1-0.2-0.4-0.4-0.6-0.6-0.2 0.2-0.5 0.4-0.5 0.6s0.3 0.4 0.6 0.8c0.2-0.4 0.5-0.7 0.5-0.8zm-36.6 35.4c-0.1 0-0.5 0.3-0.5 0.5 0 0.3 0.2 0.5 0.5 1 0.3-0.4 0.6-0.7 0.6-0.8 0-0.4-0.3-0.6-0.6-0.7zm3.6 8.3c0.2 0.2 0.3 0.6 0.6 0.6 0.1 0.1 0.4-0.3 0.8-0.5-0.4-0.3-0.6-0.6-0.8-0.6-0.2 0.1-0.4 0.3-0.6 0.5zm40.3-39.1c0.2 0 0.4-0.3 0.8-0.5-0.4-0.3-0.7-0.5-0.9-0.6-0.1 0-0.5 0.4-0.4 0.5 0 0.3 0.3 0.6 0.5 0.6zm4.5 21.6c-0.9-0.2-1.6 0.2-2.2 1.2-0.3-0.5-0.7-1-1-1.5 0.3-0.5 0.7-1.1 1-1.6 0.4 1 1.1 1.5 2 1.4s1.5-0.9 1.5-1.7-0.6-1.6-1.4-1.7c-1-0.2-1.7 0.2-2.1 1.3-0.4-0.5-0.8-1.1-1.3-1.7 1.1-0.9 1.4-2.1 0.6-3-0.4-0.4-0.9-0.9-1.4-0.9-0.7 0-1.4 0.4-2 0.6-0.2-0.2-0.5-0.5-0.8-0.7 0.2-0.3 0.5-0.7 0.8-1 0.9 1.2 2.1 1.4 3 0.6 0.8-0.7 0.9-2 0.1-2.7-0.4-0.3-0.9-0.5-1.4-0.6-0.8-0.1-1.3 0.4-1.5 0.7-0.5-0.4-0.9-0.8-1.4-1.2 1-0.8 1.3-1.9 0.4-2.8-0.3-0.4-0.8-0.6-1.3-0.7-0.9-0.2-1.5 0.4-1.9 1-0.5-0.5-1-0.9-1.5-1.3 1-0.6 1.3-1.3 1.1-2.2-0.2-0.8-0.9-1.4-1.8-1.4-0.8 0-1.5 0.6-1.7 1.4-0.2 0.9 0.2 1.6 1.1 2.1-0.4 0.3-0.9 0.6-1.3 0.9-0.3-0.3-0.7-0.6-1-0.9 1.1-1.1 1.2-2.2 0.3-3.1-0.8-0.8-1.9-0.8-2.7-0.1-0.9 0.9-0.9 1.9 0.3 3.2-0.3 0.3-0.6 0.5-0.9 0.8-0.3-0.3-0.6-0.5-0.8-0.8 1-1.3 1-2.5 0-3.3-0.4-0.3-0.9-0.4-1.4-0.4-0.9 0-1.4 0.6-1.8 1.4-0.4-0.9-1-1.4-1.9-1.4-1.1 0-1.7 0.7-2 1.7-0.5-1.1-1.1-1.6-1.9-1.7-0.8 0-1.6 0.4-1.8 1.2-0.4 1 0 1.8 0.6 2.2-0.4 0.4-0.8 0.9-1.2 1.3-0.4-0.5-1-1-2-0.9s-1.5 0.8-1.8 1.8c-0.5-1.1-1.1-1.6-1.9-1.5s-1.4 0.6-1.6 1.4c-0.3 1.2 0.4 1.8 1.4 2.3-2.1 0.9-2.3 2.5-0.9 3.8-0.4 0.4-0.9 0.8-1.3 1.2-0.4-0.5-1.2-0.9-2.2-0.6-0.7 0.2-1.2 1-1.2 1.7 0 1 0.6 1.6 1.6 1.9-1 0.3-1.7 0.9-1.7 1.9-0.1 1 0.5 1.6 1.4 2.1-1.4 0.8-1.8 2-1.1 3.1s1.9 1.2 3.4 0.1c0.3 0.3 0.5 0.6 0.8 0.9-0.3 0.3-0.5 0.6-0.8 0.9-1.2-1.1-2.1-1.2-3-0.3-0.8 0.7-0.9 1.9-0.1 2.7 0.3 0.3 0.8 0.7 1.3 0.7 0.7-0.1 1.4-0.4 2.1-0.7 0.2 0.2 0.5 0.5 0.7 0.8-0.3 0.4-0.6 0.8-0.9 1.2-0.7-1-1.4-1.4-2.3-1.1-0.8 0.2-1.3 0.9-1.3 1.7s0.5 1.5 1.3 1.7c0.4 0.1 1 0.1 1.3-0.1 0.4-0.2 0.7-0.6 0.9-0.9 0.4 0.5 0.9 1 1.3 1.5-0.7 0.5-1.2 1.1-1 2.1 0.1 0.8 0.6 1.3 1.4 1.5 1 0.3 1.7-0.2 2.2-0.9 0.5 0.4 0.9 0.9 1.4 1.3-1.1 0.8-1.4 2-0.6 2.9 0.7 0.8 2 0.9 2.7 0.2 0.3-0.3 0.5-0.9 0.6-1.4 0.1-0.8-0.4-1.4-1.1-1.8 0.4-0.3 0.8-0.6 1-0.8l0.9 0.9c-1 1.2-1.1 2.2-0.1 3.1 0.4 0.3 0.9 0.5 1.4 0.6 0.9 0.1 1.5-0.4 1.9-1 0.6 0.4 1.2 0.9 1.7 1.2-1 0.4-1.5 1.1-1.3 2 0.1 0.9 0.8 1.5 1.7 1.5 0.8 0 1.6-0.6 1.7-1.4 0-0.4 0-1-0.2-1.3-0.2-0.4-0.7-0.6-1-0.8 0.5-0.3 1-0.7 1.5-1 0.5 0.3 1 0.7 1.5 1-1 0.5-1.5 1.2-1.3 2.1 0.2 0.8 0.9 1.4 1.7 1.4s1.6-0.5 1.7-1.3c0.1-0.4 0-1-0.2-1.3-0.2-0.4-0.7-0.6-0.9-0.9 0.5-0.4 1-0.8 1.6-1.3 0.5 0.7 1.1 1.1 2 1.1s1.5-0.6 1.9-1.4c1 1.3 2.2 1.6 3.2 0.7 1-0.8 0.9-2 0-3 0.3-0.4 0.6-0.8 0.9-1.2 1.1 1.1 2.1 1.2 3.1 0.4 0.4-0.4 0.8-1 0.7-1.4 0-0.7-0.5-1.3-0.7-2l0.9-0.9c1.2 1.1 2.3 1.2 3.2 0.2s0.6-2.1-0.7-3.2c0.8-0.4 1.3-1 1.3-1.9 0.1-0.9-0.5-1.6-1.1-2 0.4-0.6 0.9-1.1 1.3-1.6 0.5 1 1.2 1.4 2.1 1.2 0.8-0.2 1.4-0.9 1.4-1.7 0.2-0.9-0.4-1.6-1.2-1.8zm-38.6 0.5c-0.4-0.3-0.7-0.5-1-0.8 0.3-0.3 0.7-0.5 1-0.8 0.2 0.2 0.4 0.5 0.7 0.8-0.3 0.3-0.5 0.5-0.7 0.8zm0-4c-0.5-0.3-0.9-0.6-1.3-0.8 0.4-0.3 0.9-0.6 1.3-1 0.2 0.3 0.5 0.6 0.7 0.9-0.2 0.4-0.4 0.6-0.7 0.9zm4.1 16.2c-0.3-0.3-0.6-0.6-0.9-1-0.1 0-0.1 0.1-0.2 0.1 0.3-0.2 0.6-0.5 1-0.7 0.2 0.3 0.4 0.5 0.6 0.9-0.1 0.2-0.3 0.5-0.5 0.7zm-0.6-4.8 0.6-0.6 0.4 0.4c-0.2 0.2-0.3 0.4-0.5 0.6-0.1-0.1-0.3-0.2-0.5-0.4zm0.6-15.6c-0.3-0.2-0.6-0.4-0.9-0.7 0.3-0.2 0.5-0.5 0.8-0.7 0.2 0.3 0.4 0.5 0.7 0.8l-0.6 0.6zm-0.2-3.9c-0.3-0.2-0.8-0.5-1.2-0.8l1.4-1.4c0.2 0.4 0.5 0.8 0.7 1.2-0.2 0.3-0.6 0.7-0.9 1zm4.2 24c-0.1-0.2-0.2-0.4-0.4-0.6 0.2-0.1 0.3-0.3 0.6-0.5 0.1 0.2 0.3 0.3 0.4 0.4-0.3 0.2-0.4 0.4-0.6 0.7zm0.1-24.2c-0.3-0.2-0.6-0.4-0.8-0.7 0.2-0.3 0.5-0.5 0.7-0.8 0.2 0.3 0.4 0.6 0.7 0.9l-0.6 0.6zm4 28.4c-0.2-0.3-0.4-0.5-0.6-0.7 0.2-0.2 0.4-0.4 0.7-0.6 0.2 0.2 0.4 0.3 0.6 0.5-0.3 0.3-0.5 0.5-0.7 0.8zm0-32.3c-0.3-0.2-0.7-0.5-0.9-0.7 0.3-0.4 0.7-0.9 1-1.3 0.2 0.4 0.5 0.8 0.8 1.3-0.3 0.2-0.6 0.4-0.9 0.7zm4 32.1-0.6-0.6 0.5-0.5c0.2 0.2 0.4 0.3 0.6 0.5-0.1 0.2-0.3 0.4-0.5 0.6zm0-32.2c-0.3-0.2-0.5-0.4-0.8-0.6 0.3-0.3 0.5-0.7 0.8-1.1 0.2 0.3 0.5 0.7 0.8 1.1-0.3 0.2-0.6 0.4-0.8 0.6zm4.1 32.4c-0.2-0.3-0.4-0.5-0.7-0.8 0.2-0.2 0.4-0.3 0.6-0.5 0.2 0.2 0.4 0.4 0.7 0.6-0.2 0.2-0.4 0.5-0.6 0.7zm4.1-29.6 0.5 0.5c-0.2 0.2-0.4 0.4-0.5 0.4s-0.3-0.1-0.6-0.2c0.2-0.3 0.4-0.4 0.6-0.7zm-0.1 29.8c-0.2-0.3-0.5-0.6-0.7-0.9 0.2-0.2 0.4-0.4 0.7-0.6 0.3 0.2 0.5 0.4 0.8 0.6-0.2 0.3-0.5 0.6-0.8 0.9zm4-4.3c-0.1-0.2-0.3-0.4-0.6-0.7l0.5-0.5c0.3 0.2 0.5 0.4 0.7 0.6-0.1 0.2-0.3 0.4-0.6 0.6zm-0.5-20.8 0.6-0.6 0.5 0.5c-0.2 0.2-0.4 0.3-0.6 0.5-0.2-0.1-0.3-0.2-0.5-0.4zm0.6-3.5-0.7-0.7c0.2-0.3 0.5-0.6 0.6-0.8l0.9 0.9c-0.2 0.2-0.5 0.4-0.8 0.6zm4 6.9c0.2 0.2 0.5 0.4 0.8 0.6-0.3 0.2-0.5 0.4-0.8 0.7-0.2-0.2-0.3-0.4-0.5-0.6 0.1-0.3 0.3-0.5 0.5-0.7zm0.5 4.6-0.6 0.6c-0.2-0.2-0.3-0.4-0.5-0.5 0.2-0.2 0.3-0.4 0.5-0.6 0.2 0.1 0.4 0.3 0.6 0.5zm-0.6 3.4c0.2 0.2 0.5 0.4 0.8 0.6-0.2 0.2-0.5 0.4-0.7 0.7-0.2-0.2-0.4-0.5-0.7-0.7 0.3-0.2 0.4-0.4 0.6-0.6zm0.1 5.5c-0.2-0.3-0.4-0.5-0.6-0.8 0.2-0.2 0.4-0.5 0.6-0.7 0.3 0.2 0.6 0.5 0.9 0.7-0.3 0.3-0.6 0.6-0.9 0.8z"/></svg>
